<?xml version="1.0" encoding="UTF-8" standalone="no"?>
<svg
   viewBox="0 0 100 100"
   width="100"
   height="100"
   version="1.1"
   id="svg2"
   sodipodi:docname="pumpkin.svg"
   xml:space="preserve"
   inkscape:version="1.3.1 (91b66b0783, 2023-11-16)"
   xmlns:inkscape="http://www.inkscape.org/namespaces/inkscape"
   xmlns:sodipodi="http://sodipodi.sourceforge.net/DTD/sodipodi-0.dtd"
   xmlns:xlink="http://www.w3.org/1999/xlink"
   xmlns="http://www.w3.org/2000/svg"
   xmlns:svg="http://www.w3.org/2000/svg">
  <sodipodi:namedview
   id="namedview2"
   pagecolor="#ffffff"
   bordercolor="#666666"
   borderopacity="1.0"
   inkscape:showpageshadow="2"
   inkscape:pageopacity="0.0"
   inkscape:pagecheckerboard="0"
   inkscape:deskcolor="#d1d1d1"
   inkscape:zoom="8.2508581"
   inkscape:cx="49.9948"
   inkscape:cy="49.9948"
   inkscape:window-width="1920"
   inkscape:window-height="1017"
   inkscape:window-x="1912"
   inkscape:window-y="-8"
   inkscape:window-maximized="1"
   inkscape:current-layer="svg2"
   showgrid="false" /><!-- Pumpkin body gradient -->
  <defs
   id="defs2">
    <linearGradient
   id="pumpkinGradient"
   gradientTransform="rotate(90)">
      <stop
   offset="-99"
   stop-color="#4caf50"
   id="stop2"
   style="stop-color:#007002;stop-opacity:1;" />
      <stop
   offset="0.74539548"
   stop-color="#ff9900"
   id="stop1"
   style="stop-color:#f99300;stop-opacity:1;" />
    </linearGradient>
    <linearGradient
   inkscape:collect="always"
   xlink:href="#pumpkinGradient"
   id="linearGradient5"
   x1="82.597549"
   y1="-896.78113"
   x2="102.8917"
   y2="713.35785"
   gradientUnits="userSpaceOnUse"
   gradientTransform="matrix(0.06075954,0,0,0.06075954,46.248806,54.978004)" />
  </defs>
  <path
   style="fill:url(#linearGradient5);fill-rule:nonzero;stroke:none;stroke-width:0.0607596;fill-opacity:1"
   d="m 33.462748,12.50665 c -0.40272,0.351823 -0.85166,0.68166 -1.195408,1.093672 -0.970638,1.163405 -0.3141,2.295704 0.89161,2.900044 1.973021,0.988945 4.067889,0.66524 6.136714,1.049326 v 0.06076 c -1.409299,0.450021 -2.562411,2.412039 -1.275061,3.573606 0.827398,0.746553 1.993915,0.920517 3.037088,1.173515 2.70039,0.654937 5.617875,0.846391 7.235592,3.455418 0.300087,0.483985 0.655037,1.070026 0.750812,1.640507 0.06243,0.37184 -0.145829,0.800695 -0.244155,1.15443 -0.225248,0.810308 -0.535882,1.709189 -0.572623,2.551902 -1.024599,-0.137977 -2.004754,-0.436487 -3.048292,-0.480968 -1.649895,-0.07032 -3.131251,0.271838 -4.728928,0.602486 v -0.06076 l 0.972151,-0.486078 c -0.963085,-0.507452 -2.160349,-0.689499 -3.220256,-0.887762 -2.146713,-0.401544 -4.389359,-0.593828 -6.56203,-0.310317 -1.105756,0.144289 -2.140765,0.462274 -3.220256,0.712004 -0.04517,-0.285634 -1.17936,-0.343805 -1.458229,-0.389316 -1.556725,-0.254035 -3.237504,-0.261526 -4.800003,-0.05175 -6.364306,0.854451 -11.509592,4.724106 -15.2582444,9.798039 -2.5707208,3.479567 -4.3634878,7.615442 -5.4531673,11.787349 -2.8362799,10.858863 -1.53343294,23.079363 4.0990153,32.87091 3.7959057,6.598862 10.0751314,12.82144 18.1313844,13.122937 2.109486,0.07894 4.174619,-0.274488 6.197473,-0.849512 v -0.06076 l -1.21519,-0.425316 v -0.06076 c 1.809048,0.493798 3.522145,1.247794 5.407599,1.448148 0.79146,0.0841 1.617164,0.191521 2.41303,0.117721 0.503641,-0.0467 1.233187,-0.265062 1.718618,-0.129624 1.214997,0.338978 2.379946,1.131252 3.584813,1.559681 1.941081,0.690209 3.970401,0.65176 5.954437,0.155879 0.626382,-0.156554 1.401411,-0.300243 1.944304,-0.660664 l -0.789873,-0.303798 v -0.06076 c 2.601219,0.504456 5.27501,-0.03167 7.898741,0.120165 0.751782,0.0435 1.542526,0.427802 2.308861,0.53103 2.010262,0.270806 4.368277,0.343172 6.379752,0.0519 1.338975,-0.193896 2.640389,-0.656938 3.888608,-1.165076 0.579271,-0.235813 1.262418,-0.680956 1.883545,-0.759347 0.403035,-0.05087 0.87826,0.156018 1.275949,0.222732 0.796474,0.133617 1.623525,0.248828 2.430383,0.268593 3.379494,0.0828 6.743816,-0.716106 9.721527,-2.326726 6.396726,-3.459947 10.802263,-9.967755 13.063301,-16.750878 3.03835,-9.115037 3.03677,-19.186787 -0.200987,-28.253187 -1.966597,-5.506898 -5.255659,-10.708426 -9.945856,-14.285525 -3.080678,-2.349552 -7.011578,-4.098013 -10.939106,-4.183877 -1.157853,-0.02531 -2.312267,-0.0139 -3.460906,0.137129 -0.605191,0.07958 -1.33956,0.384918 -1.944305,0.322037 -0.44106,-0.04586 -0.914373,-0.321226 -1.336707,-0.460622 -0.796564,-0.262906 -1.60658,-0.463283 -2.430383,-0.61955 -3.166105,-0.600571 -6.887178,-0.398282 -9.843044,0.984065 l 0.729115,0.364557 v 0.06076 l -1.822786,0.364557 c -0.278997,-2.071772 -0.616824,-4.033255 -0.415,-6.136712 0.0966,-1.00688 0.51267,-1.932223 0.658039,-2.916458 2.103025,1.298029 3.866741,3.15748 6.015193,4.382416 0.718616,0.409719 2.163337,0.712158 2.49114,-0.311527 1.481651,0.780388 2.880945,1.745011 4.617726,1.820397 0.950561,0.04126 2.191054,-0.466302 1.911947,-1.638117 -0.08667,-0.363882 -0.369185,-0.61534 -0.57524,-0.911395 1.380912,-0.357259 2.769268,-0.558428 4.131648,-1.012657 0.620526,-0.206888 1.366628,-0.47306 1.733569,-1.054056 0.738724,-1.169667 -0.31834,-2.404157 -1.308253,-2.975438 -1.998239,-1.153185 -4.160685,-0.754934 -6.136711,0.181389 0.0085,-0.409935 0.116513,-0.808441 0.0044,-1.215193 -0.213746,-0.775255 -0.929154,-0.814036 -1.584102,-0.605859 -1.165735,0.370529 -2.186087,1.280023 -3.037979,2.12485 0.158162,-1.251408 -0.175837,-2.456335 -1.701267,-1.911064 -1.423735,0.508921 -2.474236,1.815428 -3.949367,2.219689 -0.733249,0.200947 -1.400515,0.0842 -2.126585,-0.06559 1.928265,-3.300596 5.088582,-5.18409 8.810131,-5.877834 1.420668,-0.264827 2.834413,-0.224472 4.253169,-0.380398 -0.701518,-1.331905 -1.462156,-2.634956 -2.195833,-3.949371 -0.234785,-0.420637 -0.516492,-1.316551 -0.926625,-1.578064 -0.339926,-0.216751 -0.998425,-0.02111 -1.37375,-0.0041 -1.409395,0.06399 -2.871566,0.36294 -4.192405,0.864698 -4.062433,1.543204 -7.171638,4.600761 -9.356314,8.312381 -0.853374,1.449796 -1.403698,3.023423 -2.188019,4.496205 C 49.214398,20.959376 49.438336,17.010207 48.346444,13.418059 47.928587,12.043387 46.668592,10.359711 45.067818,11.048435 44.513725,8.3711266 43.629601,5.240357 41.594206,3.2970458 40.548267,2.2984283 38.597198,1.6255558 37.677232,3.2104526 37.383036,3.7172804 37.356101,4.3992239 37.351354,4.9724797 36.528073,4.5830077 35.803785,3.9424527 35.042492,3.4450506 33.837029,2.6574441 32.563588,1.954334 31.275399,1.3119007 30.262234,0.80663062 29.018158,0.296835 27.872866,0.56304959 25.725532,1.0621796 25.557464,3.8619854 26.090163,5.5800732 27.22221,9.2312104 29.945628,11.31675 33.462742,12.506664 m -5.103801,17.762041 0.02026,0.02026 c -0.03,0.01 -0.06723,-0.02026 -0.02026,-0.02026 m 12.030392,1.032912 c 0.04699,0 0.0097,0.03024 -0.02026,0.02026 l 0.02026,-0.02026 M 28.4197,95.868751 l -0.06076,0.06076 0.06076,-0.06076 m 0.243039,0.06076 v 0.06076 h -0.182277 z"
   id="path4" />
</svg>
